<svg width="17" height="19" viewBox="0 0 17 19" fill="none" xmlns="http://www.w3.org/2000/svg">
<path fill-rule="evenodd" clip-rule="evenodd" d="M9.39071 18C11.5064 16.5563 16.3333 12.7636 16.3333 8.20866C16.3333 3.8364 12.7889 0.29199 8.41667 0.29199C4.04441 0.29199 0.5 3.8364 0.5 8.20866C0.5 12.7636 5.32692 16.5563 7.44262 18C8.03425 18.4037 8.79908 18.4037 9.39071 18ZM8.41667 10.7087C9.79738 10.7087 10.9167 9.58937 10.9167 8.20866C10.9167 6.82794 9.79738 5.70866 8.41667 5.70866C7.03595 5.70866 5.91667 6.82794 5.91667 8.20866C5.91667 9.58937 7.03595 10.7087 8.41667 10.7087Z" fill="#898989"/>
</svg>
